#!OML:ASF F:\VICON\USERDATA\INSTALL\rory3\rory3.ASF
:FULLY-SPECIFIED
:DEGREES
307
root 2.76868 15.6073 -4.7623 40.0792 -26.4958 -1.39617
lowerback -8.15977 1.39216 -13.6006
upperback -14.1197 1.54224 -4.31571
thorax -11.3149 1.83977 2.74901
lowerneck -13.7252 4.80329 4.87378
upperneck 20.7764 4.83576 2.94405
head 8.82961 2.94907 0.750222
rclavicle -3.83654e-014 6.36111e-015
rhumerus 160.657 8.2754 -174.879
rradius 12.9476
rwrist 132.437
rhand -17.1269 7.60487
rfingers 7.12502
rthumb 9.11289 -22.1783
lclavicle -3.83654e-014 6.36111e-015
lhumerus -4.55328 12.8591 -5.08163
lradius 20.6384
lwrist -36.359
lhand 0.835313 33.6691
lfingers 7.12502
lthumb 26.3902 61.8525
rfemur 168.308 -183.506 -155.854
rtibia 31.0882
rfoot 0.229813 -45.6883
rtoes 45.64
lfemur -73.5793 11.191 -39.2921
ltibia 58.9587
lfoot -37.1563 18.6635
ltoes 15.1451
308
root 2.78965 15.5943 -4.69435 40.8243 -26.0436 -2.61035
lowerback -9.09372 1.4243 -11.5044
upperback -13.7948 1.74936 -4.19583
thorax -10.2017 1.68414 1.8195
lowerneck -14.9184 4.95879 4.96565
upperneck 20.9814 4.95913 2.87808
head 9.12541 3.01327 0.766294
rclavicle 3.06128e-014 2.38542e-014
rhumerus 160.404 7.64678 -174.56
rradius 12.8229
rwrist 131.451
rhand -16.6014 7.69412
rfingers 7.12502
rthumb 9.61999 -22.0662
lclavicle 3.06128e-014 2.38542e-014
lhumerus -4.26633 14.4875 -5.04167
lradius 20.3037
lwrist -37.2458
lhand 0.831225 33.4748
lfingers 7.12502
lthumb 26.3863 61.6587
rfemur 168.244 -180.894 -154.404
rtibia 30.6408
rfoot 14.0807 -42.162
rtoes 37.8078
lfemur -73.8929 11.084 -37.9679
ltibia 59.4919
lfoot -37.6347 18.2816
ltoes 16.2542
309
root 2.79972 15.5803 -4.67821 40.8584 -26.1458 -2.81801
lowerback -9.24631 1.4485 -10.7719
upperback -13.8117 1.76404 -4.3928
thorax -10.0632 1.59969 1.21872
lowerneck -13.9614 4.98087 5.10935
upperneck 20.4662 5.00287 3.00217
head 8.77506 3.04682 0.752103
rclavicle 1.78906e-015 3.65764e-014
rhumerus 160.424 6.36847 -174.356
rradius 12.6391
rwrist 130.743
rhand -16.4696 7.40169
rfingers 7.12502
rthumb 9.7471 -22.3528
lclavicle 1.78906e-015 3.65764e-014
lhumerus -3.89209 13.7802 -5.12004
lradius 20.498
lwrist -36.608
lhand 0.690643 32.6574
lfingers 7.12502
lthumb 26.2517 60.8614
rfemur 168.204 -180.053 -153.763
rtibia 30.3943
rfoot 6.91886 -44.089
rtoes 44.7686
lfemur -73.9331 10.9367 -37.5932
ltibia 59.8544
lfoot -37.9012 17.8005
ltoes 15.6782
310
root 2.80749 15.5563 -4.69256 40.6457 -26.5402 -2.57004
lowerback -8.84499 1.43494 -10.9516
upperback -13.6861 1.67994 -4.68062
thorax -10.1435 1.55382 0.995766
lowerneck -14.6063 5.08597 5.3533
upperneck 20.6742 4.9808 3.25236
head 8.96787 3.08729 0.818388
rclavicle -1.98785e-016 1.74931e-014
rhumerus 160.577 5.35457 -174.116
rradius 12.5719
rwrist 129.894
rhand -16.5393 7.07098
rfingers 7.12502
rthumb 9.67988 -22.6866
lclavicle -1.98785e-016 1.74931e-014
lhumerus -3.39173 13.5236 -5.12743
lradius 20.619
lwrist -35.9263
lhand 0.000541675 31.3536
lfingers 7.12502
lthumb 25.5909 59.6543
rfemur 167.966 -180.119 -153.508
rtibia 30.3607
rfoot 7.97519 -43.4574
rtoes 44.3868
lfemur -73.9839 10.7814 -37.7336
ltibia 60.1225
lfoot -37.7413 17.5797
ltoes 14.1335
311
root 2.81087 15.5532 -4.69825 40.5185 -26.8935 -2.48142
lowerback -8.72383 1.02388 -10.4979
upperback -14.2404 1.03671 -4.3986
thorax -10.7857 1.23107 1.03032
lowerneck -11.0794 5.52603 4.35627
upperneck 19.5095 5.94664 3.85033
head 7.88254 3.4919 1.14546
rclavicle -2.74323e-014 1.59028e-015
rhumerus 158.84 3.85158 -174.506
rradius 12.5559
rwrist 129.8
rhand -16.2845 7.19344
rfingers 7.12502
rthumb 9.92564 -22.5526
lclavicle -2.74323e-014 1.59028e-015
lhumerus -4.85011 11.5263 -5.98996
lradius 20.7352
lwrist -35.2676
lhand -0.15087 31.29
lfingers 7.12502
lthumb 25.4459 59.6114
rfemur 167.511 -180.293 -153.149
rtibia 30.6734
rfoot 7.22961 -42.4333
rtoes 45.2441
lfemur -73.9003 10.7259 -37.7453
ltibia 60.1372
lfoot -37.3717 17.8812
ltoes 12.5839
312
root 2.81454 15.5561 -4.7002 40.2503 -27.4054 -2.19308
lowerback -8.41042 0.946168 -10.8177
upperback -14.2465 0.875103 -4.50263
thorax -10.9834 1.17982 1.08212
lowerneck -10.8808 5.62383 4.30618
upperneck 19.3417 6.07058 4.02981
head 7.78375 3.56014 1.21357
rclavicle -4.09496e-014 7.79236e-014
rhumerus 158.524 2.41421 -174.111
rradius 12.903
rwrist 128.674
rhand -15.8516 7.48173
rfingers 7.12502
rthumb 10.3433 -22.2439
lclavicle -4.09496e-014 7.79236e-014
lhumerus -4.5983 11.5449 -5.88394
lradius 20.529
lwrist -35.3068
lhand 0.545744 32.3503
lfingers 7.12502
lthumb 26.113 60.5749
rfemur 167.016 -180.544 -153.094
rtibia 31.0886
rfoot 5.18185 -40.5928
rtoes 46.6575
lfemur -73.6299 10.6166 -37.961
ltibia 60.0581
lfoot -37.3379 18.0298
ltoes 12.3431
313
root 2.81895 15.553 -4.70388 40.1183 -27.6628 -1.93376
lowerback -8.25122 0.744398 -10.8724
upperback -14.3524 0.559131 -4.48966
thorax -11.1772 1.03417 1.12267
lowerneck -9.8452 5.76077 4.18786
upperneck 18.717 6.37297 3.96239
head 7.38956 3.67399 1.18785
rclavicle -4.13472e-014 -3.02153e-014
rhumerus 158.002 1.09452 -173.865
rradius 13.0172
rwrist 128.014
rhand -15.7476 7.02287
rfingers 7.12502
rthumb 10.4437 -22.6977
lclavicle -4.13472e-014 -3.02153e-014
lhumerus -4.69259 11.5175 -5.82555
lradius 20.5408
lwrist -35.6052
lhand 1.13472 33.0591
lfingers 7.12502
lthumb 26.6768 61.1991
rfemur 166.368 -180.658 -152.857
rtibia 31.4169
rfoot 8.72321 -42.1522
rtoes 44.1374
lfemur -73.4969 10.3778 -38.0905
ltibia 59.9573
lfoot -37.5451 17.8966
ltoes 12.5777
314
root 2.82395 15.5425 -4.71281 39.9711 -27.7791 -1.86556
lowerback -7.88835 1.16284 -11.0802
upperback -13.6826 1.1044 -5.22693
thorax -10.6409 1.24858 0.446219
lowerneck -12.9778 5.37425 5.72999
upperneck 19.3043 5.40305 3.47387
head 8.218 3.30317 0.802487
rclavicle 7.4743e-014 -3.02153e-014
rhumerus 160.2 0.780283 -173.218
rradius 12.8589
rwrist 127.317
rhand -15.3105 6.77498
rfingers 7.12502
rthumb 10.8652 -22.9239
lclavicle 7.4743e-014 -3.02153e-014
lhumerus -2.14281 12.8711 -4.82845
lradius 20.4228
lwrist -35.5877
lhand 1.57613 33.7094
lfingers 7.12502
lthumb 27.0991 61.7844
rfemur 165.85 -181.21 -152.378
rtibia 31.8108
rfoot 8.37804 -42.7944
rtoes 44.4446
lfemur -73.386 10.3184 -38.0726
ltibia 59.8966
lfoot -37.6448 17.8111
ltoes 12.8277
315
root 2.82512 15.5362 -4.72039 39.5209 -28.2579 -1.4219
lowerback -7.59512 1.12318 -11.5416
upperback -13.4661 1.01241 -5.46697
thorax -10.5764 1.22351 0.438104
lowerneck -13.8554 5.47809 5.56296
upperneck 19.9572 5.37187 4.04073
head 8.57737 3.35046 1.05739
rclavicle -4.09496e-014 3.02153e-014
rhumerus 160.403 0.401834 -173.15
rradius 12.8432
rwrist 127.407
rhand -14.5625 7.31756
rfingers 7.12502
rthumb 11.5867 -22.3421
lclavicle -4.09496e-014 3.02153e-014
lhumerus -1.61347 13.2411 -4.59076
lradius 20.2854
lwrist -35.6137
lhand 1.40378 33.716
lfingers 7.12502
lthumb 26.9343 61.8166
rfemur 165.487 -182.333 -152.439
rtibia 32.2623
rfoot 5.27154 -43.113
rtoes 45.7961
lfemur -73.057 10.4476 -38.6039
ltibia 59.772
lfoot -37.6674 17.8574
ltoes 12.9077
